<svg width="20" height="20" viewBox="0 0 20 20" fill="none" xmlns="http://www.w3.org/2000/svg">
<path d="M10 18C12.2091 18 14.2091 17.1046 15.6568 15.6568C17.1046 14.2091 18 12.2091 18 10C18 7.79088 17.1046 5.79088 15.6568 4.34314C14.2091 2.89543 12.2091 2 10 2C7.79088 2 5.79088 2.89543 4.34314 4.34314C2.89543 5.79088 2 7.79088 2 10C2 12.2091 2.89543 14.2091 4.34314 15.6568C5.79088 17.1046 7.79088 18 10 18Z" fill="#FF3344"/>
<path d="M10.0198 6V11.5V6Z" fill="white"/>
<path d="M10.0198 6V11.5" stroke="white" stroke-width="1.5" stroke-linecap="round" stroke-linejoin="round"/>
<path d="M9.75 13.75C9.75 13.6119 9.86193 13.5 10 13.5C10.1381 13.5 10.25 13.6119 10.25 13.75C10.25 13.8881 10.1381 14 10 14C9.86193 14 9.75 13.8881 9.75 13.75Z" fill="white" stroke="white"/>
</svg>
